<?xml version="1.0" encoding="UTF-8"?>
<svg width="45px" height="45px" viewBox="0 0 45 45" version="1.1" xmlns="http://www.w3.org/2000/svg" xmlns:xlink="http://www.w3.org/1999/xlink">
    <title>Logo-outline-45@1x</title>
    <defs>
        <path d="M27.6334307,27.2394996 L27.6314277,38.3064053 C23.889197,36.1346283 20.3567801,33.6412419 17.0720072,30.8640765 C20.7104669,29.9219876 24.238284,28.705756 27.6334307,27.2394996 Z M27.6334274,21.1490629 L27.633423,26.8562773 C24.1368311,28.3750529 20.4982035,29.6271228 16.743063,30.5868977 C15.0999446,29.1785086 13.5198663,27.701421 12.007503,26.1577394 C17.4593646,25.0711664 22.6918387,23.3767534 27.6334274,21.1490629 Z M27.6326798,17.8222449 L27.6334635,20.7631188 C22.6058552,23.0428361 17.2742577,24.7673438 11.7164576,25.8586525 C10.2989992,24.3956944 8.94223082,22.8737924 7.64991621,21.2970311 C11.4490057,20.6631745 15.1483833,19.7352683 18.7249731,18.5382939 C19.7366061,19.0009815 20.8401645,19.2784415 21.9818143,19.3443839 C23.9797596,19.4599691 25.9613735,18.9192708 27.6326798,17.8222449 Z M15.808694,16.3935455 C16.5124709,17.1808467 17.3493145,17.8291686 18.2745307,18.316741 C14.7594003,19.4744876 11.1244643,20.371252 7.3942701,20.9841411 C6.16750363,19.4697144 4.9995488,17.9057963 3.89423801,16.2955148 C7.41712651,15.6851954 10.8537406,14.8206965 14.1848934,13.7231248 C14.5507047,14.690785 15.09818,15.5980752 15.808694,16.3935455 Z M27.6345635,14.8832188 L27.6332393,16.0707144 C26.0730366,17.3866882 24.0759948,18.0569352 22.062969,17.9404775 C21.6610898,17.9172648 21.2649652,17.8631184 20.877857,17.7796627 C23.1869943,16.9254753 25.4415039,15.9576481 27.6345635,14.8832188 Z M17.9592925,14.2253781 C18.942233,15.4123535 20.3839409,16.1628141 21.9599215,16.3033178 C22.6792903,16.3683004 23.4007668,16.304202 24.093118,16.1206972 C22.8386545,16.6564665 21.5660708,17.1587075 20.2765944,17.625526 C18.9581948,17.2259714 17.7725414,16.4804101 16.8573051,15.4565536 C16.2739011,14.8033918 15.8224309,14.061151 15.516199,13.2698144 C16.0362337,13.0875193 16.5519162,12.8998281 17.0648632,12.7065332 C17.2741953,13.2487274 17.5753587,13.7629075 17.9592925,14.2253781 Z M15.1043021,6.10087001 C14.2620824,7.30291318 13.7547757,8.73207226 13.657355,10.2385435 C13.588013,11.3114658 13.7304199,12.3803621 14.0657206,13.3903586 C10.7061148,14.4987363 7.2357668,15.367657 3.67739758,15.9779953 C2.35804715,14.0338764 1.13057815,12.0249139 -1.77635684e-14,9.95543601 C5.14653528,9.21792708 10.1198783,7.94421084 14.8623201,6.19259783 L15.1043021,6.10087001 Z M27.6334603,13.6735294 L27.6347253,14.4913279 C27.0650457,14.772107 26.4911779,15.0456497 25.9132412,15.3118363 C26.1293428,15.1738271 26.3375089,15.0207441 26.5371266,14.8543967 C26.9529733,14.5059899 27.3203306,14.1087142 27.6334603,13.6735294 Z M27.452184,10.2274255 C27.3391804,11.6200395 26.6820406,12.8984074 25.6354404,13.7752778 C24.6307077,14.6125485 23.3509798,15.0170003 22.0856172,14.9026968 C20.8806079,14.795266 19.7846094,14.2247594 19.0418314,13.3277993 C18.7552244,12.982564 18.5309395,12.5999271 18.3734488,12.1964569 C18.876689,11.9980701 19.3747446,11.7928263 19.8700117,11.5822747 C19.92044,11.7209824 19.985605,11.8567811 20.063648,11.987597 C20.4491751,12.6303224 21.1071774,13.0884465 21.87671,13.2513865 C22.7053049,13.4268737 23.590118,13.2439206 24.3174162,12.7452477 C25.0976901,12.2075381 25.627377,11.3597345 25.7819629,10.3951869 C25.8669345,9.86027305 25.8338909,9.3154145 25.6911505,8.79535454 C26.1826294,8.53418778 26.6713119,8.26590841 27.1565707,7.99224647 C27.4100042,8.70732855 27.5133613,9.46846013 27.452184,10.2274255 Z M21.6773834,4.13270849 L21.97293,4.14652269 C23.5865004,4.26061065 25.0708629,4.99400435 26.0988556,6.17684427 C26.4890118,6.62765155 26.8007759,7.12897489 27.0277656,7.660313 C26.548722,7.93176175 26.0665973,8.19692988 25.5811969,8.4567526 C25.4462324,8.09715202 25.257728,7.75490239 25.0183363,7.44109046 C24.3351196,6.53291709 23.2841822,5.93428423 22.1098977,5.78694107 C20.8761168,5.63176502 19.6105459,5.9881375 18.6080422,6.77700182 C17.5507416,7.60785595 16.8698658,8.84480913 16.7251464,10.2097863 C16.647075,10.940701 16.7246532,11.6762102 16.9449761,12.3723566 C16.4336922,12.5686283 15.9174368,12.7565432 15.3985015,12.9387396 C15.1206672,12.1013383 15.0033446,11.2163432 15.0606755,10.3292662 C15.1770162,8.53022349 15.9977422,6.86841848 17.3353481,5.71271014 C18.4761062,4.72146986 19.9098282,4.16819275 21.3824217,4.13284798 L21.6773834,4.13270849 Z M24.3932794,10.17361 C24.2992741,10.7601574 23.9813537,11.2690129 23.5208219,11.5863803 C23.1091053,11.8686719 22.6162721,11.9705751 22.1680423,11.875645 C21.7752328,11.792472 21.4510528,11.5667665 21.2704487,11.2656772 C21.222139,11.184699 21.1856675,11.1008149 21.1609009,11.0164473 L21.5770751,10.8281023 C21.6983284,10.9274366 21.8533831,10.9870435 22.0223596,10.9870435 C22.5010879,10.9870435 22.8906669,10.637018 22.9788626,10.1740332 C23.4536281,9.94493708 23.9266877,9.71070574 24.3968278,9.47153841 C24.4313562,9.70356231 24.430279,9.94068886 24.3932794,10.17361 Z M21.934617,7.18222444 C22.7352278,7.28268098 23.4425013,7.68555674 23.8974296,8.29025772 C24.0909711,8.54397778 24.2325837,8.82360991 24.3195542,9.11423095 C23.8760568,9.34256538 23.4309131,9.56399123 22.9832204,9.78096233 C22.9265716,9.44050535 22.7130812,9.12982363 22.3993655,8.93054622 C21.981439,8.66414646 21.4379827,8.6286167 20.9473262,8.82626304 C20.4190622,9.03874945 20.0075887,9.49348584 19.8211095,10.0662396 C19.6998628,10.4460123 19.684107,10.8507053 19.7686819,11.2426355 C19.2703118,11.455425 18.7675813,11.6628337 18.2620668,11.864734 C18.1173852,11.3755635 18.0694269,10.8648422 18.1235005,10.3585967 C18.2283568,9.36960602 18.7189487,8.47834333 19.477295,7.88241509 C20.186064,7.32468904 21.0756512,7.07418994 21.934617,7.18222444 Z M27.6327487,-2.13162821e-14 L27.6333999,5.86436502 C27.4880027,5.65438157 27.3304944,5.45106464 27.1612233,5.25548021 C26.0039427,3.92387563 24.3881082,3.05550885 22.6160571,2.80184681 C24.3279972,1.93339969 26.0013521,0.997780354 27.6327487,-2.13162821e-14 Z" id="path-1"></path>
    </defs>
    <g id="Logo-outline-45" stroke="none" stroke-width="1" fill="none" fill-rule="evenodd">
        <g id="sail" transform="translate(9.139959, 3.515434)">
            <mask id="mask-2" fill="white">
                <use xlink:href="#path-1"></use>
            </mask>
            <use id="Combined-Shape" fill="#084A80" xlink:href="#path-1"></use>
        </g>
        <g id="flag" opacity="0.5" transform="translate(0.351562, 3.693095)" stroke="#07335A" stroke-linecap="round" stroke-linejoin="round" stroke-width="0.5">
            <line x1="0" y1="11.7781879" x2="5.62499975" y2="11.7764996" id="Path-12"></line>
            <line x1="2.109375" y1="10.0203754" x2="7.73437475" y2="10.0186871" id="Path-12"></line>
            <line x1="24.2578125" y1="1.93443795" x2="29.8828122" y2="1.93274955" id="Path-12"></line>
            <line x1="27.0703125" y1="0.176625448" x2="32.6953122" y2="0.174937052" id="Path-12"></line>
        </g>
    </g>
</svg>