<?xml version="1.0" encoding="UTF-8"?>
<svg width="320px" height="320px" viewBox="0 0 320 320" version="1.1" xmlns="http://www.w3.org/2000/svg" xmlns:xlink="http://www.w3.org/1999/xlink">
    <title>board_double_check_part</title>
    <g id="board_double_check_part" stroke="none" stroke-width="1" fill="none" fill-rule="evenodd">
        <g id="board_double_check" transform="translate(23.000000, 23.000000)">
            <path d="M226.794922,301.025144 C265.564453,286.957819 282.068359,251.398745 266.443359,208.415249 L259.216797,188.388847 C251.501953,167.190169 236.951172,158.49578 219.861328,164.454855 C215.271484,158.49578 208.240234,156.444295 200.623047,159.179608 C197.791016,160.254195 195.349609,161.719542 193.005859,163.477958 C188.025391,156.932743 180.310547,154.588189 172.302734,157.518882 C170.154297,158.3004 168.103516,159.374988 166.150391,160.840334 L155.017578,130.361128 C150.818359,118.736046 140.271484,113.851558 129.431641,117.759148 C118.494141,121.764429 113.611328,132.217233 117.810547,143.842315 L145.642578,220.43109 C145.837891,220.919538 145.740234,221.310298 145.251953,221.505677 C144.958984,221.603367 144.568359,221.505677 144.275391,221.114918 L132.849609,208.708318 C127.185547,202.651553 120.349609,200.795447 113.806641,203.140002 C104.919922,206.461454 99.1582031,214.960463 102.869141,225.022509 C103.748047,227.855512 105.701172,231.274653 107.947266,234.107657 L140.662109,273.574321 C165.369141,303.565078 194.373047,312.845606 226.794922,301.025144 Z M150.427734,265.56376 L117.712891,226.194786 C116.736328,225.022509 116.052734,223.947921 115.466797,222.287195 C114.294922,219.161123 115.662109,215.546602 119.373047,214.178945 C122.498047,213.104357 124.939453,214.276635 127.478516,216.914258 L150.134766,240.262112 C153.845703,244.072012 157.166016,244.560461 160.388672,243.388184 C164.294922,241.922838 165.857422,237.917557 164.294922,233.716897 L129.724609,138.567068 C128.259766,134.659477 130.017578,130.947266 133.728516,129.57961 C137.537109,128.211953 141.052734,129.970369 142.517578,133.975649 L167.224609,201.870035 C168.396484,205.093797 172.009766,206.461454 175.232422,205.386866 C178.357422,204.214589 180.017578,200.795447 178.943359,197.571685 L169.958984,173.149244 C171.326172,171.879277 173.181641,170.60931 175.037109,169.925482 C179.626953,168.264756 183.435547,170.316241 185.193359,175.103039 L193.005859,196.399408 C194.177734,199.81855 197.791016,201.088517 200.916016,199.916239 C203.943359,198.841652 205.896484,195.61789 204.626953,192.198748 L198.279297,174.80997 C199.646484,173.540003 201.501953,172.270036 203.357422,171.586208 C207.947266,169.925482 211.755859,171.976967 213.513672,176.763765 L218.689453,191.026471 C219.958984,194.445613 223.572266,195.71558 226.697266,194.543302 C229.724609,193.468715 231.580078,190.147263 230.408203,186.825811 L226.501953,176.275317 C234.705078,173.344624 242.419922,179.987528 247.693359,194.640992 L253.845703,211.345942 C267.224609,248.272672 255.115234,276.407324 222.595703,288.227785 C197.009766,297.606003 172.986328,292.819204 150.427734,265.56376 Z" id="finger" fill="#EDF9FF" fill-rule="nonzero" opacity="0.5"></path>
            <path d="M124.750135,162.668584 C125.698135,162.668584 126.430135,162.45251 126.970135,162.140403 L126.970135,161.336127 C126.466135,161.588213 125.866135,161.864308 124.870135,161.864308 C123.022135,161.864308 122.254135,160.663896 122.254135,158.599188 L122.254135,158.203052 C122.254135,156.066319 123.334135,155.154006 124.858135,155.154006 C125.650135,155.154006 126.250135,155.334068 126.886135,155.586154 L126.886135,154.793882 C126.394135,154.529792 125.770135,154.34973 124.906135,154.34973 C122.854135,154.34973 121.246135,155.478117 121.246135,158.359105 L121.246135,158.599188 C121.246135,161.324123 122.578135,162.668584 124.750135,162.668584 Z M129.525479,163.040711 L129.525479,159.301147 C129.525479,158.193345 130.16415,157.513425 131.171963,157.513425 C132.179775,157.513425 132.648525,158.058533 132.648525,159.195642 L132.648525,163.040711 L133.668057,163.040711 L133.668057,158.949464 C133.668057,157.448949 132.877041,156.610771 131.459072,156.610771 C130.527432,156.610771 129.935635,157.003484 129.619229,157.671682 L129.525479,157.671682 L129.525479,154.213464 L128.505947,154.213464 L128.505947,163.040711 L129.525479,163.040711 Z M138.086025,163.152078 C139.574307,163.152078 140.47665,162.308038 140.693447,161.452276 L140.705166,161.405385 L139.685635,161.405385 L139.662197,161.458137 C139.492275,161.839127 138.964932,162.243563 138.109463,162.243563 C136.984463,162.243563 136.26376,161.481583 136.234463,160.174494 L140.781338,160.174494 L140.781338,159.77592 C140.781338,157.888553 139.738369,156.610771 138.021572,156.610771 C136.304775,156.610771 135.191494,157.947167 135.191494,159.899009 L135.191494,159.90487 C135.191494,161.886018 136.281338,163.152078 138.086025,163.152078 Z M139.744229,159.359761 L136.252041,159.359761 C136.363369,158.158177 137.078213,157.519286 138.015713,157.519286 C138.947354,157.519286 139.63876,158.111286 139.744229,159.359761 Z M144.947354,163.152078 C146.464932,163.152078 147.314541,162.337345 147.572354,161.194375 L147.584072,161.1299 L146.57626,161.135761 L146.564541,161.170929 C146.330166,161.874296 145.791104,162.249424 144.941494,162.249424 C143.816494,162.249424 143.089932,161.317464 143.089932,159.86384 L143.089932,159.852118 C143.089932,158.427801 143.804775,157.513425 144.941494,157.513425 C145.849697,157.513425 146.412197,158.017504 146.5704,158.638811 L146.57626,158.656395 L147.589932,158.656395 L147.584072,158.621227 C147.396572,157.49584 146.47665,156.610771 144.941494,156.610771 C143.171963,156.610771 142.046963,157.888553 142.046963,159.852118 L142.046963,159.86384 C142.046963,161.868434 143.177822,163.152078 144.947354,163.152078 Z M150.156338,163.040711 L150.156338,160.643405 L150.748135,160.068989 L153.115322,163.040711 L154.398525,163.040711 L151.462979,159.377345 L154.216885,156.722138 L152.980557,156.722138 L150.250088,159.48285 L150.156338,159.48285 L150.156338,154.213464 L149.136807,154.213464 L149.136807,163.040711 L150.156338,163.040711 Z" id="Check" fill="#1A98D7" fill-rule="nonzero"></path>
            <path d="M145.696289,149.151986 C147.952148,149.151986 149.069336,148.034416 149.069336,145.820765 L149.069336,132.700053 C149.069336,130.486403 147.952148,129.368832 145.696289,129.368832 L127.112305,129.368832 C124.867188,129.368832 123.739258,130.475657 123.739258,132.700053 L123.739258,145.820765 C123.739258,148.045161 124.867188,149.151986 127.112305,149.151986 L145.696289,149.151986 Z M135.211914,144.509769 C134.835938,144.509769 134.545898,144.359327 134.255859,143.983221 L131.570313,140.684238 C131.398438,140.46932 131.3125,140.222165 131.3125,139.985756 C131.3125,139.491446 131.677734,139.093848 132.171875,139.093848 C132.472656,139.093848 132.719727,139.201307 132.977539,139.555921 L135.168945,142.360594 L139.755859,134.99967 C139.949219,134.666548 140.228516,134.50536 140.518555,134.50536 C140.991211,134.50536 141.431641,134.827736 141.431641,135.322047 C141.431641,135.558456 141.291992,135.816357 141.163086,136.031274 L136.103516,143.983221 C135.888672,144.337835 135.577148,144.509769 135.211914,144.509769 Z" id="icon" fill="#1A98D7" fill-rule="nonzero"></path>
            <ellipse id="Oval" stroke-opacity="0.16" stroke="#787880" fill-opacity="0.08" fill="#747480" cx="60" cy="60.0205906" rx="59.5" ry="59.5205906"></ellipse>
            <path d="M45.8095238,87.0298564 C47.0793651,87.0298564 48.1587302,86.5193446 49.4285714,85.7854838 L86.4444444,64.2801736 C89.0793651,62.7167311 90,61.6957075 90,60.0046371 C90,58.3135667 89.0793651,57.2925431 86.4444444,55.7610077 L49.4285714,34.2237904 C48.1587302,33.4899297 47.0793651,33.0113248 45.8095238,33.0113248 C43.4603175,33.0113248 42,34.7981162 42,37.5740242 L42,82.4352501 C42,85.2111581 43.4603175,87.0298564 45.8095238,87.0298564 Z" id="Play" fill="#1667A0" fill-rule="nonzero"></path>
            <ellipse id="Oval" stroke-opacity="0.16" stroke="#787880" fill-opacity="0.08" fill="#747480" cx="215" cy="60.0205906" rx="59.5" ry="59.5205906"></ellipse>
            <path d="M212.265625,27.3843945 C212.265625,27.3843945 196.40625,44.8904001 196.40625,44.8904001 C190.031671,52.6096442 188.002684,59.2357461 187.999976,65.0223065 C187.998306,68.6735591 188.786896,72.0186401 189.84375,74.9788472 C192.578125,82.6377246 202.421875,89.7495394 215,89.7495394 C227.578125,89.7495394 237.421875,82.6377246 240.15625,74.9788472 C241.214039,72.0160223 242.003136,68.6717532 242.000151,65.0223065 C241.99503,59.2379641 239.964778,52.6053436 233.59375,44.8904001 C233.59375,44.8904001 217.734375,27.3843945 217.734375,27.3843945 C216.096326,25.7432064 213.90625,25.7432064 212.265625,27.3843945 Z" id="Drop" fill="#1667A0"></path>
            <path d="M136,38.0130407 C137.104569,38.0130407 138,38.9087785 138,40.0137271 L138,81.0277973 C138,82.1327459 137.104569,83.0284837 136,83.0284837 C134.895431,83.0284837 134,82.1327459 134,81.0277973 L134,40.0137271 C134,38.9087785 134.895431,38.0130407 136,38.0130407 Z" id="sep" fill-opacity="0.36" fill="#3C3C43" opacity="0.5"></path>
        </g>
    </g>
</svg>